<svg id="Layer_1" data-name="Layer 1" xmlns="http://www.w3.org/2000/svg" viewBox="0 0 613.01 130.68"><defs><style>.cls-1{fill:#fff;}.cls-2{fill:#0069aa;}</style></defs><title>loc-white</title><path class="cls-1" d="M201.06,36.36c0,8.25,0,12.69,1.35,13.85,1.09,1,2.76,1.43,7.8,1.43,3.42,0,5.92-.07,7.53-1.81A8.29,8.29,0,0,0,219.42,46c.05-.58.2-1,.71-1s.52.33.52,1.1a50.5,50.5,0,0,1-1,7.41c-.4,1.42-.73,1.74-4.06,1.74-9.27,0-13.53-.39-18.75-.39-1.47,0-5.53.19-8.11.19-.84,0-1.29-.19-1.29-.65s.27-.51,1-.51a10.24,10.24,0,0,0,2.32-.26c1.29-.26,1.61-1.68,1.87-3.53.32-2.72.32-7.81.32-13.73V25c0-9.78,0-11.6-.13-13.65s-.63-3.22-2.77-3.67A9.61,9.61,0,0,0,188,7.5c-.71,0-1.09-.13-1.09-.58s.44-.58,1.42-.58c3,0,7.09.2,8.82.2,1.56,0,6.25-.2,8.77-.2.91,0,1.35.13,1.35.58s-.38.58-1.16.58a16.8,16.8,0,0,0-2.51.2c-1.74.32-2.26,1.43-2.4,3.67-.12,2.06-.12,3.87-.12,13.65V36.36Z"/><path class="cls-1" d="M234.23,25c0-9.78,0-11.6-.12-13.65s-.78-3.28-2.2-3.61a8.92,8.92,0,0,0-2.32-.26c-.65,0-1-.13-1-.64s.53-.51,1.55-.51c2.44,0,6.5.2,8.38.2,1.61,0,5.41-.2,7.86-.2.84,0,1.35.13,1.35.51s-.39.64-1,.64a10.73,10.73,0,0,0-1.93.2c-1.74.32-2.25,1.43-2.39,3.67-.13,2.06-.13,3.87-.13,13.65V36.36c0,6.26,0,11.33.27,14.12.18,1.73.64,2.89,2.58,3.15a25.47,25.47,0,0,0,3.28.26c.69,0,1,.19,1,.51s-.51.65-1.23.65c-4.25,0-8.31-.19-10-.19-1.49,0-5.55.19-8.12.19-.83,0-1.29-.19-1.29-.65s.26-.51,1-.51a10.1,10.1,0,0,0,2.32-.26c1.29-.26,1.66-1.35,1.86-3.22.32-2.71.32-7.78.32-14V25Z"/><path class="cls-1" d="M268.18,25c0-9.78,0-11.6-.13-13.65s-.64-3.22-2.78-3.67a13,13,0,0,0-2.52-.2c-.7,0-1.09-.13-1.09-.58s.47-.58,1.43-.58c3.41,0,7.46.2,8.77.2,3.16,0,5.68-.2,7.85-.2,11.66,0,13.74,6.25,13.74,9.67,0,5.28-3,8.42-6.58,11.26,5.28,1.81,11.73,6.4,11.73,13.92,0,6.89-5.36,14.05-17.21,14.05-1.54,0-7.4-.39-9.34-.39-1.5,0-5.55.19-8.13.19-.83,0-1.28-.19-1.28-.65s.25-.51,1-.51a10,10,0,0,0,2.33-.26c1.29-.26,1.61-1.68,1.86-3.53.33-2.72.33-7.81.33-13.73V25Zm7.74,1.1c0,.51.18.65.45.71a16.09,16.09,0,0,0,3,.18c2.11,0,3.53-.25,4.63-1.21,1.68-1.37,2.64-3.68,2.64-6.84,0-4.3-2.51-10-8-10a9.76,9.76,0,0,0-2.13.14c-.46.13-.58.38-.58,1.09Zm8.49,5.15a9.22,9.22,0,0,0-5.34-1.55c-1.15-.06-1.81-.06-2.77-.06-.25,0-.38.13-.38.46V45.38c0,4.25.18,5.34,2.26,6.18a11.56,11.56,0,0,0,4.7.78c2.89,0,7.78-1.55,7.78-8.24C290.66,40.09,289.32,34.68,284.41,31.27Z"/><path class="cls-1" d="M317.29,25c0-9.78,0-11.6-.14-13.65s-.64-3.22-2.77-3.67a13.11,13.11,0,0,0-2.52-.2c-.69,0-1.09-.13-1.09-.58s.45-.58,1.42-.58c3.42,0,7.48.2,8.82.2,2.19,0,7.09-.2,9.09-.2,4.06,0,8.37.4,11.86,2.78a11.11,11.11,0,0,1,4.38,8.82c0,4.76-2,9.14-8.52,14.42,5.75,7.22,10.19,13,14,17,3.61,3.71,6.25,4.18,7.21,4.36a10.26,10.26,0,0,0,1.82.2c.5,0,.78.19.78.51,0,.53-.46.65-1.23.65h-6.12c-3.61,0-5.2-.31-6.9-1.22-2.76-1.48-5.2-4.5-8.82-9.46-2.57-3.55-5.53-7.94-6.37-8.9A1.33,1.33,0,0,0,331,35l-5.61-.13a.45.45,0,0,0-.51.51v.91c0,6,0,11.07.32,13.79.19,1.86.57,3.27,2.51,3.53a27.89,27.89,0,0,0,3.17.26c.5,0,.76.19.76.51s-.45.65-1.28.65c-3.74,0-8.5-.19-9.48-.19-1.2,0-5.27.19-7.85.19-.83,0-1.29-.19-1.29-.65s.26-.51,1-.51a10,10,0,0,0,2.32-.26c1.29-.26,1.61-1.68,1.86-3.53.34-2.72.34-7.81.34-13.73V25Zm7.59,5.09c0,.71.12,1,.58,1.16a16.76,16.76,0,0,0,4.9.65c2.57,0,3.41-.27,4.57-1.1,1.93-1.42,3.8-4.38,3.8-9.65,0-9.14-6.05-11.81-9.87-11.81a13.16,13.16,0,0,0-3.4.27c-.46.12-.58.39-.58.89V30.11Z"/><path class="cls-1" d="M372,38.23c-.32,0-.46.13-.58.51L368,48a12.52,12.52,0,0,0-1,3.93c0,1.15.57,2,2.57,2h1c.77,0,1,.12,1,.51s-.38.65-1.08.65c-2.07,0-4.83-.19-6.84-.19-.7,0-4.24.19-7.6.19-.84,0-1.22-.12-1.22-.65s.26-.51.77-.51,1.48-.07,2-.13c3-.39,4.18-2.58,5.47-5.8L379.19,7.5c.77-1.86,1.17-2.57,1.81-2.57s1,.58,1.61,2.07c1.55,3.53,11.85,29.82,16,39.61,2.46,5.8,4.33,6.69,5.67,7a14.18,14.18,0,0,0,2.7.26c.52,0,.85.06.85.51s-.59.65-3,.65-7,0-12.17-.12c-1.16-.07-1.94-.07-1.94-.53s.27-.51.91-.57a1,1,0,0,0,.58-1.48L387,38.67a.62.62,0,0,0-.64-.44H372ZM385.19,35c.32,0,.38-.19.32-.39l-5.8-15.9c-.06-.27-.12-.59-.32-.59s-.32.32-.38.59l-5.93,15.84c-.06.26,0,.46.26.46Z"/><path class="cls-1" d="M416.82,25c0-9.78,0-11.6-.12-13.65S416,8.15,413.9,7.7a12.82,12.82,0,0,0-2.5-.2c-.7,0-1.1-.13-1.1-.58s.45-.58,1.42-.58c3.42,0,7.47.2,8.83.2,2.18,0,7.08-.2,9.08-.2,4.06,0,8.37.4,11.85,2.78a11.12,11.12,0,0,1,4.37,8.82c0,4.76-2,9.14-8.51,14.42,5.75,7.22,10.19,13,14,17,3.6,3.71,6.24,4.18,7.2,4.36a10.2,10.2,0,0,0,1.81.2c.52,0,.78.19.78.51,0,.53-.45.65-1.24.65h-6.11c-3.61,0-5.21-.31-6.9-1.22-2.75-1.48-5.21-4.5-8.81-9.46-2.58-3.55-5.54-7.94-6.39-8.9a1.27,1.27,0,0,0-1.14-.44l-5.61-.13c-.33,0-.52.13-.52.51v.91c0,6,0,11.07.32,13.79.2,1.86.59,3.27,2.51,3.53a28.28,28.28,0,0,0,3.17.26c.5,0,.77.19.77.51s-.46.65-1.29.65c-3.73,0-8.51-.19-9.48-.19-1.23,0-5.28.19-7.86.19-.83,0-1.27-.19-1.27-.65s.25-.51,1-.51a10.1,10.1,0,0,0,2.31-.26c1.27-.26,1.6-1.68,1.87-3.53.32-2.72.32-7.81.32-13.73Zm7.59,5.09c0,.71.12,1,.58,1.16a16.79,16.79,0,0,0,4.89.65c2.58,0,3.42-.27,4.57-1.1,1.93-1.42,3.8-4.38,3.8-9.65,0-9.14-6.05-11.81-9.85-11.81a13.26,13.26,0,0,0-3.42.27c-.46.12-.58.39-.58.89V30.11Z"/><path class="cls-1" d="M474.92,38.36a13.76,13.76,0,0,0-1.49-6.77c-.44-1-9.08-15.19-11.34-18.55a15.54,15.54,0,0,0-4.45-4.69,6.43,6.43,0,0,0-2.7-.85c-.52,0-1-.13-1-.58s.46-.58,1.24-.58c1.16,0,6,.2,8.11.2,1.36,0,4-.2,6.89-.2.65,0,1,.2,1,.58s-.45.45-1.41.71a1.17,1.17,0,0,0-.9,1.16,5.84,5.84,0,0,0,.78,2.19c.88,1.94,9.91,17.46,10.94,19.26.64-1.55,8.77-15.72,9.68-17.71a8.6,8.6,0,0,0,.88-3.36,1.53,1.53,0,0,0-1.35-1.61c-.58-.13-1.16-.26-1.16-.65s.32-.58,1.09-.58c2.13,0,4.21.2,6.07.2,1.42,0,5.67-.2,6.9-.2.7,0,1.15.13,1.15.51s-.52.64-1.23.64a7.18,7.18,0,0,0-2.83.77c-1.34.65-2.07,1.43-3.47,3.16C494.19,14,485.17,29.15,484,31.93a15.21,15.21,0,0,0-1,6.44v5.28c0,1,0,3.73.19,6.45.13,1.86.72,3.27,2.64,3.53a25.79,25.79,0,0,0,3.22.26c.71,0,1,.19,1,.51s-.52.65-1.36.65c-4,0-8.11-.19-9.85-.19s-5.67.19-8,.19c-.9,0-1.42-.12-1.42-.65,0-.31.32-.51,1-.51a10,10,0,0,0,2.25-.26c1.27-.26,1.88-1.68,2-3.53.2-2.72.2-5.42.2-6.45V38.36Z"/><path class="cls-1" d="M518.65,30.7c0-11,7.29-25.26,26.61-25.26,16,0,26,9.33,26,24.09S561,55.94,544.62,55.94C526.12,55.94,518.65,42.09,518.65,30.7Zm43.62,1.22c0-14.44-8.31-23.4-18.87-23.4-7.42,0-15.85,4.13-15.85,20.17,0,13.4,7.4,24,19.77,24C551.82,52.72,562.26,50.54,562.26,31.92Z"/><path class="cls-1" d="M595.76,36.36c0,6.19,0,11,.33,13.73.19,1.86.57,3.27,2.49,3.53a26.1,26.1,0,0,0,3.23.26c.84,0,1.11.19,1.11.51s-.46.65-1.43.65c-4.06,0-8.11-.19-9.79-.19S586,55,583.51,55c-.9,0-1.34-.12-1.34-.65,0-.31.26-.51,1-.51a10.09,10.09,0,0,0,2.32-.26c1.28-.26,1.61-1.68,1.87-3.53.32-2.72.32-7.54.32-13.73V25c0-9.78,0-11.6-.14-13.65s-.64-3.22-2.77-3.67a13.09,13.09,0,0,0-2.5-.2c-.66,0-1.11-.13-1.11-.51s.52-.65,1.49-.65c3.34,0,7.4.2,9.28.2,2.44,0,15.53,0,17-.07a11.48,11.48,0,0,0,2.63-.27,4.32,4.32,0,0,1,1-.37c.26,0,.43.25.43.58s-.32,1.22-.5,2.9c-.07.64-.2,4.45-.33,5.22-.07.51-.18.91-.65.91s-.58-.34-.64-1A6.25,6.25,0,0,0,610.5,12c-.44-.91-1.81-1.86-4.24-1.93l-9.93-.2c-.38,0-.57.2-.57.91V26.83c0,.38.06.57.46.57l8.24-.06c1.09,0,2,0,2.89-.08a3.34,3.34,0,0,0,2.77-1.15c.34-.39.46-.64.84-.64s.4.19.4.57-.33,2-.53,4c-.12,1.31-.24,4.26-.24,4.72s0,1.22-.65,1.22c-.39,0-.51-.45-.51-.91a7,7,0,0,0-.39-2,3.8,3.8,0,0,0-3.29-2.33c-1.61-.19-8.45-.19-9.53-.19-.32,0-.46.14-.46.58v5.22Z"/><path class="cls-1" d="M194,117.37c-6.31-5.53-8-12.75-8-19a24.23,24.23,0,0,1,7.54-17.66c4.63-4.24,10.76-6.84,20.35-6.84a62.64,62.64,0,0,1,9.35.65c2.45.31,4.5.89,6.44,1.09.7.07,1,.39,1,.78s-.2,1.29-.33,3.55-.06,5.66-.2,7c-.06,1-.19,1.49-.77,1.49s-.65-.52-.65-1.43A9.22,9.22,0,0,0,226.18,81c-2.13-2.24-7.14-4-13.07-4-5.62,0-9.28,1.42-12.12,4-4.69,4.33-5.92,10.46-5.92,16.71,0,15.32,11.66,22.93,20.29,22.93,5.73,0,9.21-.64,11.78-3.61a10.84,10.84,0,0,0,2.2-4.26c.2-1,.32-1.29.84-1.29s.56.46.56,1a61.31,61.31,0,0,1-1.4,8.57,2.25,2.25,0,0,1-1.68,1.86c-2.57,1-7.47,1.49-11.6,1.49C207.24,124.39,199.84,122.46,194,117.37Z"/><path class="cls-1" d="M242.35,99.15c0-11,7.28-25.27,26.6-25.27,16,0,26,9.35,26,24.13s-10.31,26.39-26.66,26.39C249.82,124.39,242.35,110.54,242.35,99.15ZM286,100.36C286,85.93,277.64,77,267.09,77c-7.41,0-15.85,4.12-15.85,20.17,0,13.39,7.41,24,19.79,24C275.53,121.18,286,119,286,100.36Z"/><path class="cls-1" d="M317.22,114.73c.15,5,1,6.69,2.26,7.16a10.23,10.23,0,0,0,3.36.44c.7,0,1.09.13,1.09.51s-.6.64-1.48.64c-4.19,0-6.77-.19-8-.19-.59,0-3.62.19-7,.19-.84,0-1.42-.06-1.42-.64,0-.38.38-.51,1-.51A11.51,11.51,0,0,0,310,122c1.69-.52,1.93-2.39,2-8l.59-38.14c0-1.29.2-2.2.83-2.2s1.3.84,2.39,2c.77.83,10.56,11.34,20,20.67,4.39,4.39,13.07,13.67,14.17,14.7h.32l-.64-28.93c-.09-3.92-.65-5.16-2.19-5.8A10.94,10.94,0,0,0,344,76c-.78,0-1-.2-1-.59s.71-.57,1.68-.57c3.35,0,6.45.2,7.8.2.71,0,3.15-.2,6.3-.2.83,0,1.48,0,1.48.57s-.38.59-1.16.59a7.11,7.11,0,0,0-1.92.19c-1.8.51-2.32,1.86-2.39,5.47l-.71,40.66c0,1.42-.24,2-.82,2s-1.5-.71-2.2-1.42C347,119,338.74,110.53,332,103.9c-7-7-14.16-15-15.32-16.24h-.2Z"/><path class="cls-1" d="M418.24,119.17c0,1.74-.07,1.86-.85,2.33-4.19,2.19-10.5,2.89-15.52,2.89-15.79,0-29.75-7.47-29.75-25.24,0-10.32,5.33-17.53,11.2-21.08,6.18-3.73,11.9-4.19,17.32-4.19a77.25,77.25,0,0,1,11.41,1,37.81,37.81,0,0,0,5.08.7c.78.07.9.34.9.78A88.89,88.89,0,0,0,417.6,87c0,1-.21,1.35-.71,1.35s-.6-.31-.64-.83a9.24,9.24,0,0,0-2.19-5.35c-1.94-2.05-7.11-5-14.37-5-3.54,0-8.25.25-12.77,4-3.6,3-5.92,7.87-5.92,15.78,0,13.85,8.84,24.23,22.43,24.23a14.41,14.41,0,0,0,5.47-.7,2.29,2.29,0,0,0,1.21-2.39v-6c0-3.23,0-5.68-.06-7.61-.07-2.18-.63-3.22-2.77-3.68a14,14,0,0,0-2.52-.19c-.58,0-1-.14-1-.51s.47-.65,1.36-.65c3.36,0,7.42.2,9.34.2s5.42-.2,7.54-.2c.84,0,1.29.14,1.29.65s-.38.51-.84.51a10.52,10.52,0,0,0-1.73.19c-1.75.34-2.4,1.44-2.46,3.68-.05,1.93-.05,4.5-.05,7.72v7.09Z"/><path class="cls-1" d="M441,93.48c0-9.81,0-11.61-.14-13.68s-.64-3.21-2.77-3.66a13,13,0,0,0-2.52-.19c-.7,0-1.09-.15-1.09-.59s.45-.57,1.41-.57c3.42,0,7.48.2,8.82.2,2.2,0,7.09-.2,9.09-.2,4.06,0,8.37.39,11.84,2.77a11.16,11.16,0,0,1,4.39,8.82c0,4.76-2,9.15-8.51,14.44,5.75,7.21,10.18,12.93,14,16.93,3.61,3.75,6.25,4.19,7.22,4.39a9.4,9.4,0,0,0,1.8.19c.52,0,.76.19.76.51,0,.52-.43.64-1.21.64H478c-3.61,0-5.21-.31-6.89-1.21-2.78-1.5-5.22-4.52-8.83-9.48-2.57-3.55-5.54-7.91-6.37-8.89a1.38,1.38,0,0,0-1.17-.46l-5.59-.11c-.33,0-.53.11-.53.5v.9c0,6,0,11.09.33,13.8.2,1.87.59,3.28,2.51,3.54a30.69,30.69,0,0,0,3.16.25c.52,0,.77.19.77.51s-.45.64-1.28.64c-3.74,0-8.51-.19-9.48-.19-1.21,0-5.27.19-7.85.19-.84,0-1.28-.19-1.28-.64s.26-.51,1-.51a10.78,10.78,0,0,0,2.32-.25c1.29-.27,1.61-1.67,1.88-3.54.32-2.72.32-7.81.32-13.73V93.48Zm7.59,5.08c0,.7.13,1,.6,1.15a16.72,16.72,0,0,0,4.88.64c2.59,0,3.41-.26,4.58-1.09,1.92-1.41,3.8-4.38,3.8-9.66,0-9.14-6.06-11.78-9.85-11.78a14.56,14.56,0,0,0-3.4.25c-.47.14-.6.4-.6.92V98.56Z"/><path class="cls-1" d="M495.79,93.48c0-9.81,0-11.61-.12-13.68s-.64-3.21-2.77-3.66a12.91,12.91,0,0,0-2.51-.19c-.71,0-1.1-.15-1.1-.59s.45-.57,1.42-.57c3.42,0,7.48.2,9.29.2,2,0,14.86,0,16.1-.08a24.2,24.2,0,0,0,2.77-.39,5.81,5.81,0,0,1,1-.25c.32,0,.39.25.39.56a40.41,40.41,0,0,0-.53,4.19c-.06.66-.19,3.49-.31,4.25-.07.33-.21.71-.65.71s-.59-.32-.59-.9a6.82,6.82,0,0,0-.38-2.31c-.45-1.17-1.1-1.94-4.32-2.31-1.08-.13-7.85-.26-9.14-.26-.32,0-.45.19-.45.63V95.14c0,.45.07.73.45.73,1.43,0,8.83,0,10.3-.14s2.52-.32,3.09-1,.72-.84,1-.84.45.13.45.52-.32,1.42-.51,4.7c-.14,1.29-.26,3.85-.26,4.3s0,1.24-.59,1.24a.52.52,0,0,1-.58-.57,17.3,17.3,0,0,0-.26-2.34c-.33-1.29-1.23-2.25-3.6-2.51-1.24-.12-7.61-.19-9.16-.19-.32,0-.38.25-.38.64v5.09c0,2.19-.07,8.12,0,10,.13,4.45,1.16,5.4,7.75,5.4,1.66,0,4.35,0,6.05-.78s2.43-2.12,2.89-4.77c.13-.7.27-1,.72-1s.51.51.51,1.15A50.39,50.39,0,0,1,521,122c-.45,1.67-1,1.67-3.48,1.67-9.73,0-14-.39-17.84-.39-1.48,0-5.54.19-8.12.19-.84,0-1.29-.19-1.29-.64s.25-.51,1-.51a10.87,10.87,0,0,0,2.32-.25c1.27-.27,1.61-1.67,1.87-3.54.31-2.72.31-7.81.31-13.73V93.48Z"/><path class="cls-1" d="M539.08,122.71c-1-.43-1.22-.77-1.22-2.18,0-3.55.27-7.41.33-8.44s.26-1.67.78-1.67.65.57.65,1.09a13.68,13.68,0,0,0,.57,3.3c1.42,4.76,5.22,6.51,9.23,6.51,5.78,0,8.62-3.94,8.62-7.36,0-3.16-.95-6.18-6.3-10.31l-3-2.31c-7.1-5.56-9.52-10-9.52-15.28,0-7.07,5.92-12.18,14.87-12.18A30.53,30.53,0,0,1,562.67,75c.58.11.9.31.9.76,0,.84-.27,2.71-.27,7.72,0,1.43-.19,1.93-.7,1.93S562,85,562,84.25A7.81,7.81,0,0,0,560.28,80c-1-1.21-2.83-3.14-7-3.14-4.78,0-7.68,2.76-7.68,6.63,0,3,1.49,5.21,6.83,9.29l1.79,1.36c7.74,6,10.58,10.29,10.58,16.41a13,13,0,0,1-6.06,11.21,18.62,18.62,0,0,1-10.24,2.64A22.21,22.21,0,0,1,539.08,122.71Z"/><path class="cls-1" d="M582.7,122.71c-1.05-.43-1.22-.77-1.22-2.18,0-3.55.24-7.41.31-8.44s.26-1.67.77-1.67.64.57.64,1.09a13.65,13.65,0,0,0,.58,3.3c1.42,4.76,5.23,6.51,9.22,6.51,5.81,0,8.65-3.94,8.65-7.36,0-3.16-1-6.18-6.34-10.31l-3-2.31c-7.08-5.56-9.53-10-9.53-15.28,0-7.07,5.91-12.18,14.88-12.18A30.41,30.41,0,0,1,606.27,75c.58.11.9.31.9.76,0,.84-.26,2.71-.26,7.72,0,1.43-.19,1.93-.71,1.93s-.65-.38-.65-1.17A7.9,7.9,0,0,0,603.89,80c-1-1.21-2.84-3.14-7-3.14-4.77,0-7.68,2.76-7.68,6.63,0,3,1.48,5.21,6.83,9.29l1.8,1.36c7.73,6,10.56,10.29,10.56,16.41a13,13,0,0,1-6.05,11.21,18.63,18.63,0,0,1-10.23,2.64A22.11,22.11,0,0,1,582.7,122.71Z"/><path class="cls-2" d="M128.39,42.29a55.61,55.61,0,0,1-14.51-2.35s-10.58-3.28-18.31-3.28c-11.63,0-19.59,9.6-19.59,9.6V38.47s7.63-9,19.57-9a60.37,60.37,0,0,1,19.06,3c9.2,2.78,14,2.44,14,2.44,10.43,0,20.58-3.57,23.36-4.63V19.59c-3,.94-14.18,4.28-23.56,4.28a55.61,55.61,0,0,1-14.51-2.35s-10.58-3.28-18.31-3.28C83.93,18.24,76,27.84,76,27.84V20.05s7.63-9,19.57-9a60.26,60.26,0,0,1,19.06,3c9.2,2.78,14,2.43,14,2.43,10.43,0,20.58-3.57,23.36-4.63V.05s-12.69,5.23-23.74,5.23S110.43,0,98.07,0,76,8.35,76,8.35,66.26,0,53.89,0,34.79,5.28,23.75,5.28,0,.05,0,.05V122.49s11.49,4.79,23,4.79c9.27,0,21.28-6.75,29.66-6.21a19.66,19.66,0,0,1,15.2,8.19,2.93,2.93,0,0,0,2.26,1.42H81.86a3,3,0,0,0,2.26-1.42,19.66,19.66,0,0,1,15.2-8.19c8.38-.54,19,6.09,29.66,6.21,11.81.13,23-4.79,23-4.79V111.68c-3,.94-14.18,4.28-23.56,4.28a55.58,55.58,0,0,1-14.51-2.36s-10.58-3.28-18.31-3.28c-11.63,0-19.59,9.59-19.59,9.59v-7.78s7.63-9,19.57-9a60.26,60.26,0,0,1,19.06,3c9.2,2.78,14,2.43,14,2.43,10.43,0,20.58-3.57,23.36-4.63V93.26c-3,.94-14.18,4.28-23.56,4.28a55.58,55.58,0,0,1-14.51-2.36s-10.58-3.28-18.31-3.28c-11.63,0-19.59,9.6-19.59,9.6V93.73s7.63-9,19.57-9a60.36,60.36,0,0,1,19.06,3c9.2,2.78,14,2.44,14,2.44,10.43,0,20.58-3.57,23.36-4.64V74.84c-3,.94-14.18,4.28-23.56,4.28a55.58,55.58,0,0,1-14.51-2.36S103.3,73.5,95.56,73.5C83.93,73.5,76,83.09,76,83.09V75.31s7.63-9,19.57-9a60.36,60.36,0,0,1,19.06,3c9.2,2.78,14,2.43,14,2.43,10.43,0,20.58-3.57,23.36-4.63V56.43c-3,.94-14.18,4.28-23.56,4.28a55.56,55.56,0,0,1-14.51-2.36s-10.58-3.28-18.31-3.28c-11.63,0-19.59,9.6-19.59,9.6V56.89s7.63-9,19.57-9a60.34,60.34,0,0,1,19.06,3c9.2,2.78,14,2.44,14,2.44,10.43,0,20.58-3.58,23.36-4.63V38C149,39,137.78,42.29,128.39,42.29Z"/></svg>